<mxfile host="app.diagrams.net" modified="2023-08-19T06:56:35.423Z" agent="Mozilla/5.0 (Windows NT 10.0; Win64; x64) AppleWebKit/537.36 (KHTML, like Gecko) Chrome/115.0.0.0 Safari/537.36 Edg/115.0.1901.203" etag="YuYahCCo5SO6JZLx_edm" version="21.6.8" type="device">
  <diagram id="YKBjTKGMOBF2p5uhFZQw" name="Satemachine">
    <mxGraphModel dx="1000" dy="698" grid="1" gridSize="10" guides="1" tooltips="1" connect="1" arrows="1" fold="1" page="1" pageScale="1" pageWidth="850" pageHeight="1100" math="0" shadow="0">
      <root>
        <mxCell id="0" />
        <mxCell id="1" parent="0" />
        <mxCell id="twPTelytEAIwxnEzPvE8-1" value="sm" style="shape=umlFrame;whiteSpace=wrap;html=1;rounded=1;shadow=0;comic=0;labelBackgroundColor=none;strokeWidth=1;fontFamily=Verdana;fontSize=12;align=center;" parent="1" vertex="1">
          <mxGeometry x="30" y="30" width="950" height="540" as="geometry" />
        </mxCell>
        <mxCell id="HjyxFPupq-Pe6MwuxSYl-1" value="B" style="rounded=1;whiteSpace=wrap;html=1;arcSize=24;fillColor=#ffffc0;strokeColor=#ff0000;shadow=0;comic=0;labelBackgroundColor=none;fontFamily=Verdana;fontSize=12;fontColor=#000000;align=center;verticalAlign=top;" parent="1" vertex="1">
          <mxGeometry x="640" y="85" width="240" height="300" as="geometry" />
        </mxCell>
        <mxCell id="twPTelytEAIwxnEzPvE8-2" value="A" style="rounded=1;whiteSpace=wrap;html=1;arcSize=24;fillColor=#ffffc0;strokeColor=#ff0000;shadow=0;comic=0;labelBackgroundColor=none;fontFamily=Verdana;fontSize=12;fontColor=#000000;align=center;verticalAlign=top;" parent="1" vertex="1">
          <mxGeometry x="240" y="80" width="240" height="300" as="geometry" />
        </mxCell>
        <mxCell id="twPTelytEAIwxnEzPvE8-3" value="BA" style="rounded=1;whiteSpace=wrap;html=1;arcSize=24;fillColor=#ffffc0;strokeColor=#ff0000;shadow=0;comic=0;labelBackgroundColor=none;fontFamily=Verdana;fontSize=12;fontColor=#000000;align=center;verticalAlign=top;" parent="1" vertex="1">
          <mxGeometry x="650" y="160" width="220" height="160" as="geometry" />
        </mxCell>
        <mxCell id="twPTelytEAIwxnEzPvE8-8" style="edgeStyle=orthogonalEdgeStyle;rounded=0;orthogonalLoop=1;jettySize=auto;html=1;" parent="1" source="twPTelytEAIwxnEzPvE8-9" target="twPTelytEAIwxnEzPvE8-2" edge="1">
          <mxGeometry relative="1" as="geometry" />
        </mxCell>
        <mxCell id="twPTelytEAIwxnEzPvE8-9" value="" style="ellipse;html=1;shape=startState;fillColor=#000000;strokeColor=#ff0000;rounded=1;shadow=0;comic=0;labelBackgroundColor=none;fontFamily=Verdana;fontSize=12;fontColor=#000000;align=center;direction=south;" parent="1" vertex="1">
          <mxGeometry x="160" y="40" width="30" height="30" as="geometry" />
        </mxCell>
        <mxCell id="twPTelytEAIwxnEzPvE8-14" value="Count" style="rounded=0;orthogonalLoop=1;jettySize=auto;html=1;entryX=1;entryY=0.5;entryDx=0;entryDy=0;exitX=1;exitY=0.75;exitDx=0;exitDy=0;" parent="1" source="twPTelytEAIwxnEzPvE8-3" target="8lL4V4ylc4chIpqy5Nob-2" edge="1">
          <mxGeometry x="-0.1111" y="10" relative="1" as="geometry">
            <mxPoint as="offset" />
          </mxGeometry>
        </mxCell>
        <mxCell id="8lL4V4ylc4chIpqy5Nob-2" value="" style="rhombus;whiteSpace=wrap;html=1;" parent="1" vertex="1">
          <mxGeometry x="745" y="265" width="30" height="30" as="geometry" />
        </mxCell>
        <mxCell id="8lL4V4ylc4chIpqy5Nob-5" value="[counter &amp;gt; 2]" style="rounded=0;orthogonalLoop=1;jettySize=auto;html=1;exitX=0;exitY=0.5;exitDx=0;exitDy=0;entryX=1;entryY=0.75;entryDx=0;entryDy=0;" parent="1" source="8lL4V4ylc4chIpqy5Nob-2" target="twPTelytEAIwxnEzPvE8-2" edge="1">
          <mxGeometry x="-0.6604" y="-15" relative="1" as="geometry">
            <mxPoint x="490" y="190" as="sourcePoint" />
            <mxPoint x="550" y="190" as="targetPoint" />
            <mxPoint as="offset" />
          </mxGeometry>
        </mxCell>
        <mxCell id="8lL4V4ylc4chIpqy5Nob-14" value="" style="whiteSpace=wrap;html=1;aspect=fixed;" parent="1" vertex="1">
          <mxGeometry x="755" y="215" width="10" height="10" as="geometry" />
        </mxCell>
        <mxCell id="ie7r2YqYSSWB5zHKcmKD-1" value="by Stefan Grimm, (C) 2023, licensed under the CC BY-SA 4.0 (internet: https://creativecommons.org/licenses/by-sa/4.0/)" style="text;html=1;strokeColor=none;fillColor=none;align=left;verticalAlign=middle;whiteSpace=wrap;rounded=0;fontSize=9;" parent="1" vertex="1">
          <mxGeometry x="30" y="580" width="500" height="20" as="geometry" />
        </mxCell>
        <mxCell id="ie7r2YqYSSWB5zHKcmKD-2" value="Triggers:&lt;br&gt;Count" style="text;html=1;strokeColor=none;fillColor=none;align=left;verticalAlign=bottom;whiteSpace=wrap;rounded=0;" parent="1" vertex="1">
          <mxGeometry x="40" y="450" width="100" height="110" as="geometry" />
        </mxCell>
        <mxCell id="NcBlyh9YTZ4Joocfzgvl-1" value="" style="rhombus;whiteSpace=wrap;html=1;" parent="1" vertex="1">
          <mxGeometry x="345" y="140" width="30" height="30" as="geometry" />
        </mxCell>
        <mxCell id="NcBlyh9YTZ4Joocfzgvl-2" value="Count" style="rounded=0;orthogonalLoop=1;jettySize=auto;html=1;entryX=0;entryY=0.5;entryDx=0;entryDy=0;exitX=0;exitY=0.25;exitDx=0;exitDy=0;" parent="1" source="twPTelytEAIwxnEzPvE8-2" target="NcBlyh9YTZ4Joocfzgvl-1" edge="1">
          <mxGeometry x="-0.0476" y="10" relative="1" as="geometry">
            <mxPoint x="250" y="165" as="sourcePoint" />
            <mxPoint as="offset" />
            <mxPoint x="355" y="165" as="targetPoint" />
          </mxGeometry>
        </mxCell>
        <mxCell id="NcBlyh9YTZ4Joocfzgvl-4" value="[counter &amp;gt; 2]" style="edgeStyle=orthogonalEdgeStyle;rounded=0;orthogonalLoop=1;jettySize=auto;html=1;entryX=0;entryY=0.25;entryDx=0;entryDy=0;exitX=1;exitY=0.5;exitDx=0;exitDy=0;" parent="1" source="NcBlyh9YTZ4Joocfzgvl-1" target="HjyxFPupq-Pe6MwuxSYl-1" edge="1">
          <mxGeometry x="-0.5849" y="15" relative="1" as="geometry">
            <mxPoint x="360" y="410" as="sourcePoint" />
            <mxPoint x="80" y="480" as="targetPoint" />
            <mxPoint as="offset" />
          </mxGeometry>
        </mxCell>
        <mxCell id="NcBlyh9YTZ4Joocfzgvl-5" value="[counter &amp;lt;= 2]" style="endArrow=none;html=1;rounded=0;entryX=0.5;entryY=1;entryDx=0;entryDy=0;exitX=0.5;exitY=0;exitDx=0;exitDy=0;" parent="1" source="NcBlyh9YTZ4Joocfzgvl-6" target="NcBlyh9YTZ4Joocfzgvl-1" edge="1">
          <mxGeometry x="-0.1111" y="-15" width="50" height="50" relative="1" as="geometry">
            <mxPoint x="490" y="275" as="sourcePoint" />
            <mxPoint x="390" y="305" as="targetPoint" />
            <Array as="points" />
            <mxPoint as="offset" />
          </mxGeometry>
        </mxCell>
        <mxCell id="NcBlyh9YTZ4Joocfzgvl-6" value="" style="whiteSpace=wrap;html=1;aspect=fixed;" parent="1" vertex="1">
          <mxGeometry x="355" y="225" width="10" height="10" as="geometry" />
        </mxCell>
        <mxCell id="fFJ4Sz6DjMxxmzhgxlRK-4" value="[counter &amp;lt;= 2]" style="endArrow=none;html=1;rounded=0;entryX=0.5;entryY=1;entryDx=0;entryDy=0;exitX=0.5;exitY=0;exitDx=0;exitDy=0;" parent="1" source="8lL4V4ylc4chIpqy5Nob-2" target="8lL4V4ylc4chIpqy5Nob-14" edge="1">
          <mxGeometry x="-0.1111" y="-15" width="50" height="50" relative="1" as="geometry">
            <mxPoint x="790" y="280" as="sourcePoint" />
            <mxPoint x="790" y="225" as="targetPoint" />
            <Array as="points" />
            <mxPoint as="offset" />
          </mxGeometry>
        </mxCell>
        <mxCell id="HjyxFPupq-Pe6MwuxSYl-2" style="edgeStyle=orthogonalEdgeStyle;rounded=0;orthogonalLoop=1;jettySize=auto;html=1;entryX=0.5;entryY=0;entryDx=0;entryDy=0;exitX=0.5;exitY=0;exitDx=0;exitDy=0;" parent="1" source="HjyxFPupq-Pe6MwuxSYl-3" target="twPTelytEAIwxnEzPvE8-3" edge="1">
          <mxGeometry relative="1" as="geometry">
            <mxPoint x="594.5" y="115" as="sourcePoint" />
            <mxPoint x="764.5" y="140" as="targetPoint" />
          </mxGeometry>
        </mxCell>
        <mxCell id="HjyxFPupq-Pe6MwuxSYl-3" value="" style="ellipse;html=1;shape=startState;fillColor=#000000;strokeColor=#ff0000;rounded=1;shadow=0;comic=0;labelBackgroundColor=none;fontFamily=Verdana;fontSize=12;fontColor=#000000;align=center;direction=south;" parent="1" vertex="1">
          <mxGeometry x="670" y="110" width="30" height="30" as="geometry" />
        </mxCell>
        <mxCell id="HjyxFPupq-Pe6MwuxSYl-4" value="v" style="ellipse;html=1;shape=endState;fillColor=#000000;strokeColor=#ff0000;" parent="1" vertex="1">
          <mxGeometry x="745" y="340" width="30" height="30" as="geometry" />
        </mxCell>
        <mxCell id="HjyxFPupq-Pe6MwuxSYl-5" value="" style="edgeStyle=orthogonalEdgeStyle;rounded=0;orthogonalLoop=1;jettySize=auto;html=1;entryX=0.5;entryY=0;entryDx=0;entryDy=0;exitX=0.5;exitY=1;exitDx=0;exitDy=0;" parent="1" source="twPTelytEAIwxnEzPvE8-3" target="HjyxFPupq-Pe6MwuxSYl-4" edge="1">
          <mxGeometry y="-10" relative="1" as="geometry">
            <mxPoint x="730" y="371" as="sourcePoint" />
            <mxPoint x="775" y="341" as="targetPoint" />
            <Array as="points" />
            <mxPoint as="offset" />
          </mxGeometry>
        </mxCell>
      </root>
    </mxGraphModel>
  </diagram>
</mxfile>
